<svg width="36" height="36" viewBox="0 0 36 36" fill="none" xmlns="http://www.w3.org/2000/svg">
<path d="M32.4457 24.6762H11.5101L12.5613 22.5352L30.0269 22.5035C30.6176 22.5035 31.1238 22.0816 31.2293 21.498L33.648 7.95938C33.7113 7.6043 33.6164 7.23867 33.3844 6.96094C33.2697 6.82425 33.1267 6.71415 32.9652 6.63826C32.8037 6.56238 32.6276 6.52253 32.4492 6.52148L10.2305 6.44766L10.0406 5.55469C9.92108 4.98516 9.4078 4.57031 8.82421 4.57031H3.39257C3.06343 4.57031 2.74777 4.70106 2.51504 4.9338C2.2823 5.16653 2.15155 5.48219 2.15155 5.81133C2.15155 6.14047 2.2823 6.45612 2.51504 6.68886C2.74777 6.92159 3.06343 7.05234 3.39257 7.05234H7.81874L8.64843 10.9969L10.691 20.8863L8.06132 25.1789C7.92475 25.3632 7.8425 25.5821 7.82386 25.8107C7.80522 26.0394 7.85094 26.2687 7.95585 26.4727C8.16679 26.891 8.59218 27.1547 9.06327 27.1547H11.2711C10.8004 27.7798 10.5462 28.5413 10.5469 29.3238C10.5469 31.3137 12.1641 32.9309 14.1539 32.9309C16.1437 32.9309 17.7609 31.3137 17.7609 29.3238C17.7609 28.5398 17.5008 27.777 17.0367 27.1547H22.7004C22.2297 27.7798 21.9755 28.5413 21.9762 29.3238C21.9762 31.3137 23.5934 32.9309 25.5832 32.9309C27.573 32.9309 29.1902 31.3137 29.1902 29.3238C29.1902 28.5398 28.9301 27.777 28.466 27.1547H32.4492C33.1312 27.1547 33.6902 26.5992 33.6902 25.9137C33.6882 25.5849 33.5562 25.2702 33.323 25.0384C33.0899 24.8066 32.7745 24.6764 32.4457 24.6762ZM10.7473 8.89453L30.9902 8.96133L29.0074 20.0637L13.1062 20.0918L10.7473 8.89453ZM14.1539 30.4348C13.5422 30.4348 13.043 29.9355 13.043 29.3238C13.043 28.7121 13.5422 28.2129 14.1539 28.2129C14.7656 28.2129 15.2648 28.7121 15.2648 29.3238C15.2648 29.6185 15.1478 29.901 14.9394 30.1094C14.7311 30.3177 14.4485 30.4348 14.1539 30.4348ZM25.5832 30.4348C24.9715 30.4348 24.4723 29.9355 24.4723 29.3238C24.4723 28.7121 24.9715 28.2129 25.5832 28.2129C26.1949 28.2129 26.6941 28.7121 26.6941 29.3238C26.6941 29.6185 26.5771 29.901 26.3687 30.1094C26.1604 30.3177 25.8778 30.4348 25.5832 30.4348Z" fill="white"/>
</svg>
